# Blender 4.0.2
# www.blender.org
mtllib miv_pfeil_links.mtl
o Curve
v 0.003742 0.000000 -0.031735
v 0.004942 0.000000 -0.031735
v 0.004942 0.000000 -0.000141
v 0.003742 0.000000 -0.000141
vn -0.0000 1.0000 -0.0000
vt 1.000000 0.000000
vt 0.333333 0.000000
vt 0.000000 0.000000
vt 0.666667 0.000000
s 0
usemtl SVGMat
f 4/1/1 2/2/1 1/3/1
f 4/1/1 3/4/1 2/2/1
o Curve
v 0.003742 0.000000 -0.031735
v 0.004942 0.000000 -0.031735
v 0.004942 0.000000 -0.000141
v 0.003742 0.000000 -0.000141
vn -0.0000 1.0000 -0.0000
vt 1.000000 0.000000
vt 0.333333 0.000000
vt 0.000000 0.000000
vt 0.666667 0.000000
s 0
usemtl SVGMat
f 8/5/2 6/6/2 5/7/2
f 8/5/2 7/8/2 6/6/2
o Curve.001
v 0.000141 0.000000 -0.052342
v 0.001341 0.000000 -0.052342
v 0.001341 0.000000 -0.031947
v 0.000141 0.000000 -0.031947
vn -0.0000 1.0000 -0.0000
vt 1.000000 0.000000
vt 0.333333 0.000000
vt 0.000000 0.000000
vt 0.666667 0.000000
s 0
usemtl SVGMat
f 12/9/3 10/10/3 9/11/3
f 12/9/3 11/12/3 10/10/3
o Curve.001
v 0.000141 0.000000 -0.052342
v 0.001341 0.000000 -0.052342
v 0.001341 0.000000 -0.031947
v 0.000141 0.000000 -0.031947
vn -0.0000 1.0000 -0.0000
vt 1.000000 0.000000
vt 0.333333 0.000000
vt 0.000000 0.000000
vt 0.666667 0.000000
s 0
usemtl SVGMat
f 16/13/4 14/14/4 13/15/4
f 16/13/4 15/16/4 14/14/4
o Curve.002
v 0.004945 0.000000 -0.031772
v 0.003754 0.000000 -0.031656
v 0.000516 0.000000 -0.052314
v 0.001705 0.000000 -0.052430
v 0.004945 0.000000 -0.031772
vn -0.0000 1.0000 -0.0000
vt 0.500000 0.000000
vt 1.000000 0.000000
vt 0.750000 0.000000
vt 0.250000 0.000000
s 0
usemtl SVGMat
f 19/17/5 21/18/5 20/19/5
f 18/20/5 21/18/5 19/17/5
o Curve.002
v 0.004945 0.000000 -0.031772
v 0.003754 0.000000 -0.031656
v 0.000516 0.000000 -0.052314
v 0.001705 0.000000 -0.052430
v 0.004945 0.000000 -0.031772
vn -0.0000 1.0000 -0.0000
vt 0.500000 0.000000
vt 1.000000 0.000000
vt 0.750000 0.000000
vt 0.250000 0.000000
s 0
usemtl SVGMat
f 24/21/6 26/22/6 25/23/6
f 23/24/6 26/22/6 24/21/6
o Curve.003
v 0.000209 0.000000 -0.051152
v 0.001942 0.000000 -0.052420
v 0.011493 0.000000 -0.039377
v 0.009761 0.000000 -0.038109
vn -0.0000 1.0000 -0.0000
vt 0.000000 0.000000
vt 0.666667 0.000000
vt 0.333333 0.000000
vt 1.000000 0.000000
s 0
usemtl SVGMat
f 27/25/7 29/26/7 28/27/7
f 30/28/7 29/26/7 27/25/7
o Curve.003
v 0.000209 0.000000 -0.051152
v 0.001942 0.000000 -0.052420
v 0.011493 0.000000 -0.039377
v 0.009761 0.000000 -0.038109
vn -0.0000 1.0000 -0.0000
vt 0.000000 0.000000
vt 0.666667 0.000000
vt 0.333333 0.000000
vt 1.000000 0.000000
s 0
usemtl SVGMat
f 31/29/8 33/30/8 32/31/8
f 34/32/8 33/30/8 31/29/8
