# Blender 4.0.2
# www.blender.org
mtllib miv_pfeil_rechts.mtl
o Curve
v 0.007950 0.000000 -0.000138
v 0.006751 0.000000 -0.000138
v 0.006751 0.000000 -0.031733
v 0.007950 0.000000 -0.031733
vn -0.0000 1.0000 -0.0000
vt 0.333333 0.000000
vt 1.000000 0.000000
vt 0.666667 0.000000
vt 0.000000 0.000000
s 0
usemtl SVGMat.001
f 2/1/1 4/2/1 3/3/1
f 2/1/1 1/4/1 4/2/1
o Curve
v 0.007950 0.000000 -0.000138
v 0.006751 0.000000 -0.000138
v 0.006751 0.000000 -0.031733
v 0.007950 0.000000 -0.031733
vn -0.0000 1.0000 -0.0000
vt 0.333333 0.000000
vt 1.000000 0.000000
vt 0.666667 0.000000
vt 0.000000 0.000000
s 0
usemtl SVGMat.001
f 6/5/2 8/6/2 7/7/2
f 6/5/2 5/8/2 8/6/2
o Curve.001
v 0.011549 0.000000 -0.031944
v 0.010349 0.000000 -0.031944
v 0.010349 0.000000 -0.052339
v 0.011549 0.000000 -0.052339
vn -0.0000 1.0000 -0.0000
vt 0.333333 0.000000
vt 1.000000 0.000000
vt 0.666667 0.000000
vt 0.000000 0.000000
s 0
usemtl SVGMat.001
f 10/9/3 12/10/3 11/11/3
f 10/9/3 9/12/3 12/10/3
o Curve.001
v 0.011549 0.000000 -0.031944
v 0.010349 0.000000 -0.031944
v 0.010349 0.000000 -0.052339
v 0.011549 0.000000 -0.052339
vn -0.0000 1.0000 -0.0000
vt 0.333333 0.000000
vt 1.000000 0.000000
vt 0.666667 0.000000
vt 0.000000 0.000000
s 0
usemtl SVGMat.001
f 14/13/4 16/14/4 15/15/4
f 14/13/4 13/16/4 16/14/4
o Curve.002
v 0.006748 0.000000 -0.031772
v 0.007939 0.000000 -0.031656
v 0.011176 0.000000 -0.052314
v 0.009985 0.000000 -0.052430
v 0.006748 0.000000 -0.031772
vn -0.0000 1.0000 -0.0000
vt 1.000000 0.000000
vt 0.500000 0.000000
vt 0.750000 0.000000
vt 0.250000 0.000000
s 0
usemtl SVGMat.001
f 21/17/5 19/18/5 20/19/5
f 21/17/5 18/20/5 19/18/5
o Curve.002
v 0.006748 0.000000 -0.031772
v 0.007939 0.000000 -0.031656
v 0.011176 0.000000 -0.052314
v 0.009985 0.000000 -0.052430
v 0.006748 0.000000 -0.031772
vn -0.0000 1.0000 -0.0000
vt 1.000000 0.000000
vt 0.500000 0.000000
vt 0.750000 0.000000
vt 0.250000 0.000000
s 0
usemtl SVGMat.001
f 26/21/6 24/22/6 25/23/6
f 26/21/6 23/24/6 24/22/6
o Curve.003
v 0.001928 0.000000 -0.038106
v 0.000195 0.000000 -0.039375
v 0.009747 0.000000 -0.052418
v 0.011480 0.000000 -0.051149
vn -0.0000 1.0000 -0.0000
vt 0.333333 0.000000
vt 1.000000 0.000000
vt 0.666667 0.000000
vt 0.000000 0.000000
s 0
usemtl SVGMat.001
f 28/25/7 30/26/7 29/27/7
f 28/25/7 27/28/7 30/26/7
o Curve.003
v 0.001928 0.000000 -0.038106
v 0.000195 0.000000 -0.039375
v 0.009747 0.000000 -0.052418
v 0.011480 0.000000 -0.051149
vn -0.0000 1.0000 -0.0000
vt 0.333333 0.000000
vt 1.000000 0.000000
vt 0.666667 0.000000
vt 0.000000 0.000000
s 0
usemtl SVGMat.001
f 32/29/8 34/30/8 33/31/8
f 32/29/8 31/32/8 34/30/8
