# Blender 4.0.2
# www.blender.org
mtllib miv_g.mtl
o Curve
v 0.013612 0.000000 -0.052131
v 0.014811 0.000000 -0.052131
v 0.014811 0.000000 -0.000141
v 0.013612 0.000000 -0.000141
vn -0.0000 1.0000 -0.0000
vt 1.000000 0.000000
vt 0.333333 0.000000
vt 0.000000 0.000000
vt 0.666667 0.000000
s 0
usemtl SVGMat
f 4/1/1 2/2/1 1/3/1
f 4/1/1 3/4/1 2/2/1
o Curve
v 0.013612 0.000000 -0.052131
v 0.014811 0.000000 -0.052131
v 0.014811 0.000000 -0.000141
v 0.013612 0.000000 -0.000141
vn -0.0000 1.0000 -0.0000
vt 1.000000 0.000000
vt 0.333333 0.000000
vt 0.000000 0.000000
vt 0.666667 0.000000
s 0
usemtl SVGMat
f 8/5/2 6/6/2 5/7/2
f 8/5/2 7/8/2 6/6/2
o Curve.001
v 0.013828 0.000000 -0.051857
v 0.015009 0.000000 -0.052065
v 0.018595 0.000000 -0.031732
v 0.017414 0.000000 -0.031524
vn -0.0000 1.0000 -0.0000
vt 0.000000 0.000000
vt 0.666667 0.000000
vt 0.333333 0.000000
vt 1.000000 0.000000
s 0
usemtl SVGMat
f 9/9/3 11/10/3 10/11/3
f 12/12/3 11/10/3 9/9/3
o Curve.001
v 0.013828 0.000000 -0.051857
v 0.015009 0.000000 -0.052065
v 0.018595 0.000000 -0.031732
v 0.017414 0.000000 -0.031524
vn -0.0000 1.0000 -0.0000
vt 0.000000 0.000000
vt 0.666667 0.000000
vt 0.333333 0.000000
vt 1.000000 0.000000
s 0
usemtl SVGMat
f 13/13/4 15/14/4 14/15/4
f 16/16/4 15/14/4 13/13/4
o Curve.002
v 0.013414 0.000000 -0.052065
v 0.014595 0.000000 -0.051857
v 0.011009 0.000000 -0.031525
v 0.009828 0.000000 -0.031733
vn -0.0000 1.0000 -0.0000
vt 1.000000 0.000000
vt 0.333333 0.000000
vt 0.000000 0.000000
vt 0.666667 0.000000
s 0
usemtl SVGMat
f 20/17/5 18/18/5 17/19/5
f 20/17/5 19/20/5 18/18/5
o Curve.002
v 0.013414 0.000000 -0.052065
v 0.014595 0.000000 -0.051857
v 0.011009 0.000000 -0.031525
v 0.009828 0.000000 -0.031733
vn -0.0000 1.0000 -0.0000
vt 1.000000 0.000000
vt 0.333333 0.000000
vt 0.000000 0.000000
vt 0.666667 0.000000
s 0
usemtl SVGMat
f 24/21/6 22/22/6 21/23/6
f 24/21/6 23/24/6 22/22/6
o Curve.003
v 0.002213 0.000000 -0.055212
v 0.004211 0.000000 -0.060012
v 0.000212 0.000000 -0.060012
v 0.002213 0.000000 -0.055212
vn -0.0000 1.0000 -0.0000
vt 1.000000 0.000000
vt 0.333333 0.000000
vt 0.666667 0.000000
s 0
usemtl SVGMat
f 28/25/7 26/26/7 27/27/7
o Curve.003
v 0.002213 0.000000 -0.055212
v 0.004211 0.000000 -0.060012
v 0.000212 0.000000 -0.060012
v 0.002213 0.000000 -0.055212
vn -0.0000 1.0000 -0.0000
vt 1.000000 0.000000
vt 0.333333 0.000000
vt 0.666667 0.000000
s 0
usemtl SVGMat
f 32/28/8 30/29/8 31/30/8
o Curve.004
v 0.008213 0.000000 -0.055212
v 0.010211 0.000000 -0.060012
v 0.006212 0.000000 -0.060012
v 0.008213 0.000000 -0.055212
vn -0.0000 1.0000 -0.0000
vt 1.000000 0.000000
vt 0.333333 0.000000
vt 0.666667 0.000000
s 0
usemtl SVGMat
f 36/31/9 34/32/9 35/33/9
o Curve.004
v 0.008213 0.000000 -0.055212
v 0.010211 0.000000 -0.060012
v 0.006212 0.000000 -0.060012
v 0.008213 0.000000 -0.055212
vn -0.0000 1.0000 -0.0000
vt 1.000000 0.000000
vt 0.333333 0.000000
vt 0.666667 0.000000
s 0
usemtl SVGMat
f 40/34/10 38/35/10 39/36/10
o Curve.005
v 0.014213 0.000000 -0.055212
v 0.016211 0.000000 -0.060012
v 0.012212 0.000000 -0.060012
v 0.014213 0.000000 -0.055212
vn -0.0000 1.0000 -0.0000
vt 1.000000 0.000000
vt 0.333333 0.000000
vt 0.666667 0.000000
s 0
usemtl SVGMat
f 44/37/11 42/38/11 43/39/11
o Curve.005
v 0.014213 0.000000 -0.055212
v 0.016211 0.000000 -0.060012
v 0.012212 0.000000 -0.060012
v 0.014213 0.000000 -0.055212
vn -0.0000 1.0000 -0.0000
vt 1.000000 0.000000
vt 0.333333 0.000000
vt 0.666667 0.000000
s 0
usemtl SVGMat
f 48/40/12 46/41/12 47/42/12
o Curve.006
v 0.020213 0.000000 -0.055212
v 0.022211 0.000000 -0.060012
v 0.018212 0.000000 -0.060012
v 0.020213 0.000000 -0.055212
vn -0.0000 1.0000 -0.0000
vt 1.000000 0.000000
vt 0.333333 0.000000
vt 0.666667 0.000000
s 0
usemtl SVGMat
f 52/43/13 50/44/13 51/45/13
o Curve.006
v 0.020213 0.000000 -0.055212
v 0.022211 0.000000 -0.060012
v 0.018212 0.000000 -0.060012
v 0.020213 0.000000 -0.055212
vn -0.0000 1.0000 -0.0000
vt 1.000000 0.000000
vt 0.333333 0.000000
vt 0.666667 0.000000
s 0
usemtl SVGMat
f 56/46/14 54/47/14 55/48/14
o Curve.007
v 0.026213 0.000000 -0.055212
v 0.028212 0.000000 -0.060012
v 0.024212 0.000000 -0.060012
v 0.026213 0.000000 -0.055212
vn -0.0000 1.0000 -0.0000
vt 1.000000 0.000000
vt 0.333333 0.000000
vt 0.666667 0.000000
s 0
usemtl SVGMat
f 60/49/15 58/50/15 59/51/15
o Curve.007
v 0.026213 0.000000 -0.055212
v 0.028212 0.000000 -0.060012
v 0.024212 0.000000 -0.060012
v 0.026213 0.000000 -0.055212
vn -0.0000 1.0000 -0.0000
vt 1.000000 0.000000
vt 0.333333 0.000000
vt 0.666667 0.000000
s 0
usemtl SVGMat
f 64/52/16 62/53/16 63/54/16
