# Blender 4.0.2
# www.blender.org
mtllib MIVpfeil_gerade.mtl
o Curve
v 0.013612 0.000000 -0.052131
v 0.014811 0.000000 -0.052131
v 0.014811 0.000000 -0.000141
v 0.013612 0.000000 -0.000141
vn -0.0000 1.0000 -0.0000
vt 1.000000 0.000000
vt 0.333333 0.000000
vt 0.000000 0.000000
vt 0.666667 0.000000
s 0
usemtl SVGMat
f 4/1/1 2/2/1 1/3/1
f 4/1/1 3/4/1 2/2/1
o Curve
v 0.013612 0.000000 -0.052131
v 0.014811 0.000000 -0.052131
v 0.014811 0.000000 -0.000141
v 0.013612 0.000000 -0.000141
vn -0.0000 1.0000 -0.0000
vt 1.000000 0.000000
vt 0.333333 0.000000
vt 0.000000 0.000000
vt 0.666667 0.000000
s 0
usemtl SVGMat
f 8/5/2 6/6/2 5/7/2
f 8/5/2 7/8/2 6/6/2
o Curve.001
v 0.013828 0.000000 -0.051857
v 0.015009 0.000000 -0.052065
v 0.018595 0.000000 -0.031732
v 0.017414 0.000000 -0.031524
vn -0.0000 1.0000 -0.0000
vt 0.000000 0.000000
vt 0.666667 0.000000
vt 0.333333 0.000000
vt 1.000000 0.000000
s 0
usemtl SVGMat
f 9/9/3 11/10/3 10/11/3
f 12/12/3 11/10/3 9/9/3
o Curve.001
v 0.013828 0.000000 -0.051857
v 0.015009 0.000000 -0.052065
v 0.018595 0.000000 -0.031732
v 0.017414 0.000000 -0.031524
vn -0.0000 1.0000 -0.0000
vt 0.000000 0.000000
vt 0.666667 0.000000
vt 0.333333 0.000000
vt 1.000000 0.000000
s 0
usemtl SVGMat
f 13/13/4 15/14/4 14/15/4
f 16/16/4 15/14/4 13/13/4
o Curve.002
v 0.013414 0.000000 -0.052065
v 0.014595 0.000000 -0.051857
v 0.011009 0.000000 -0.031525
v 0.009828 0.000000 -0.031733
vn -0.0000 1.0000 -0.0000
vt 1.000000 0.000000
vt 0.333333 0.000000
vt 0.000000 0.000000
vt 0.666667 0.000000
s 0
usemtl SVGMat
f 20/17/5 18/18/5 17/19/5
f 20/17/5 19/20/5 18/18/5
o Curve.002
v 0.013414 0.000000 -0.052065
v 0.014595 0.000000 -0.051857
v 0.011009 0.000000 -0.031525
v 0.009828 0.000000 -0.031733
vn -0.0000 1.0000 -0.0000
vt 1.000000 0.000000
vt 0.333333 0.000000
vt 0.000000 0.000000
vt 0.666667 0.000000
s 0
usemtl SVGMat
f 24/21/6 22/22/6 21/23/6
f 24/21/6 23/24/6 22/22/6
