# Blender 4.0.2
# www.blender.org
mtllib mivpfeil_rechts.mtl
o Curve
v 0.011399 0.000000 -0.052133
v 0.012599 0.000000 -0.052133
v 0.012599 0.000000 -0.000144
v 0.011399 0.000000 -0.000144
vn -0.0000 1.0000 -0.0000
vt 1.000000 0.000000
vt 0.333333 0.000000
vt 0.000000 0.000000
vt 0.666667 0.000000
s 0
usemtl SVGMat.003
f 4/1/1 2/2/1 1/3/1
f 4/1/1 3/4/1 2/2/1
o Curve
v 0.011399 0.000000 -0.052133
v 0.012599 0.000000 -0.052133
v 0.012599 0.000000 -0.000144
v 0.011399 0.000000 -0.000144
vn -0.0000 1.0000 -0.0000
vt 1.000000 0.000000
vt 0.333333 0.000000
vt 0.000000 0.000000
vt 0.666667 0.000000
s 0
usemtl SVGMat.003
f 8/5/2 6/6/2 5/7/2
f 8/5/2 7/8/2 6/6/2
o Curve.001
v 0.011618 0.000000 -0.051857
v 0.012799 0.000000 -0.052066
v 0.016385 0.000000 -0.031733
v 0.015203 0.000000 -0.031525
vn -0.0000 1.0000 -0.0000
vt 0.000000 0.000000
vt 0.666667 0.000000
vt 0.333333 0.000000
vt 1.000000 0.000000
s 0
usemtl SVGMat.003
f 9/9/3 11/10/3 10/11/3
f 12/12/3 11/10/3 9/9/3
o Curve.001
v 0.011618 0.000000 -0.051857
v 0.012799 0.000000 -0.052066
v 0.016385 0.000000 -0.031733
v 0.015203 0.000000 -0.031525
vn -0.0000 1.0000 -0.0000
vt 0.000000 0.000000
vt 0.666667 0.000000
vt 0.333333 0.000000
vt 1.000000 0.000000
s 0
usemtl SVGMat.003
f 13/13/4 15/14/4 14/15/4
f 16/16/4 15/14/4 13/13/4
o Curve.002
v 0.011204 0.000000 -0.052066
v 0.012385 0.000000 -0.051858
v 0.008799 0.000000 -0.031526
v 0.007618 0.000000 -0.031734
vn -0.0000 1.0000 -0.0000
vt 1.000000 0.000000
vt 0.333333 0.000000
vt 0.000000 0.000000
vt 0.666667 0.000000
s 0
usemtl SVGMat.003
f 20/17/5 18/18/5 17/19/5
f 20/17/5 19/20/5 18/18/5
o Curve.002
v 0.011204 0.000000 -0.052066
v 0.012385 0.000000 -0.051858
v 0.008799 0.000000 -0.031526
v 0.007618 0.000000 -0.031734
vn -0.0000 1.0000 -0.0000
vt 1.000000 0.000000
vt 0.333333 0.000000
vt 0.000000 0.000000
vt 0.666667 0.000000
s 0
usemtl SVGMat.003
f 24/21/6 22/22/6 21/23/6
f 24/21/6 23/24/6 22/22/6
o Curve.003
v 0.020701 0.000000 -0.020110
v 0.021621 0.000000 -0.019467
v 0.012627 0.000000 -0.010511
v 0.011707 0.000000 -0.011157
v 0.020701 0.000000 -0.020110
vn -0.0000 1.0000 -0.0000
vt 0.750000 0.000000
vt 0.250000 0.000000
vt 1.000000 0.000000
vt 0.500000 0.000000
s 0
usemtl SVGMat.003
f 28/25/7 26/26/7 29/27/7
f 28/25/7 27/28/7 26/26/7
o Curve.003
v 0.020701 0.000000 -0.020110
v 0.021621 0.000000 -0.019467
v 0.012627 0.000000 -0.010511
v 0.011707 0.000000 -0.011157
v 0.020701 0.000000 -0.020110
vn -0.0000 1.0000 -0.0000
vt 0.750000 0.000000
vt 0.250000 0.000000
vt 1.000000 0.000000
vt 0.500000 0.000000
s 0
usemtl SVGMat.003
f 33/29/8 31/30/8 34/31/8
f 33/29/8 32/32/8 31/30/8
o Curve.004
v 0.022084 0.000000 -0.020638
v 0.021565 0.000000 -0.019444
v 0.016222 0.000000 -0.021084
v 0.016745 0.000000 -0.022274
v 0.022084 0.000000 -0.020638
vn -0.0000 1.0000 -0.0000
vt 0.500000 0.000000
vt 1.000000 0.000000
vt 0.750000 0.000000
vt 0.250000 0.000000
s 0
usemtl SVGMat.003
f 37/33/9 39/34/9 38/35/9
f 36/36/9 39/34/9 37/33/9
o Curve.004
v 0.022084 0.000000 -0.020638
v 0.021565 0.000000 -0.019444
v 0.016222 0.000000 -0.021084
v 0.016745 0.000000 -0.022274
v 0.022084 0.000000 -0.020638
vn -0.0000 1.0000 -0.0000
vt 0.500000 0.000000
vt 1.000000 0.000000
vt 0.750000 0.000000
vt 0.250000 0.000000
s 0
usemtl SVGMat.003
f 42/37/10 44/38/10 43/39/10
f 41/40/10 44/38/10 42/37/10
o Curve.005
v 0.021009 0.000000 -0.020999
v 0.022209 0.000000 -0.020491
v 0.019937 0.000000 -0.012376
v 0.018737 0.000000 -0.012884
v 0.021009 0.000000 -0.020999
vn -0.0000 1.0000 -0.0000
vt 0.750000 0.000000
vt 0.250000 0.000000
vt 1.000000 0.000000
vt 0.500000 0.000000
s 0
usemtl SVGMat.003
f 48/41/11 46/42/11 49/43/11
f 48/41/11 47/44/11 46/42/11
o Curve.005
v 0.021009 0.000000 -0.020999
v 0.022209 0.000000 -0.020491
v 0.019937 0.000000 -0.012376
v 0.018737 0.000000 -0.012884
v 0.021009 0.000000 -0.020999
vn -0.0000 1.0000 -0.0000
vt 0.750000 0.000000
vt 0.250000 0.000000
vt 1.000000 0.000000
vt 0.500000 0.000000
s 0
usemtl SVGMat.003
f 53/45/12 51/46/12 54/47/12
f 53/45/12 52/48/12 51/46/12
