# Blender 4.0.2
# www.blender.org
mtllib Haltestellen_Einstieg.mtl
o Curve
v 0.000141 0.000000 -0.026535
v 0.026541 0.000000 -0.026535
v 0.026541 0.000000 -0.024137
v 0.000141 0.000000 -0.024137
vn -0.0000 1.0000 -0.0000
vt 1.000000 0.000000
vt 0.333333 0.000000
vt 0.000000 0.000000
vt 0.666667 0.000000
s 0
usemtl SVGMat
f 4/1/1 2/2/1 1/3/1
f 4/1/1 3/4/1 2/2/1
o Curve
v 0.000141 0.000000 -0.026535
v 0.026541 0.000000 -0.026535
v 0.026541 0.000000 -0.024137
v 0.000141 0.000000 -0.024137
vn -0.0000 1.0000 -0.0000
vt 1.000000 0.000000
vt 0.333333 0.000000
vt 0.000000 0.000000
vt 0.666667 0.000000
s 0
usemtl SVGMat
f 8/5/2 6/6/2 5/7/2
f 8/5/2 7/8/2 6/6/2
o Curve.001
v 0.000141 0.000000 -0.021735
v 0.026541 0.000000 -0.021735
v 0.026541 0.000000 -0.019337
v 0.000141 0.000000 -0.019337
vn -0.0000 1.0000 -0.0000
vt 1.000000 0.000000
vt 0.333333 0.000000
vt 0.000000 0.000000
vt 0.666667 0.000000
s 0
usemtl SVGMat
f 12/9/3 10/10/3 9/11/3
f 12/9/3 11/12/3 10/10/3
o Curve.001
v 0.000141 0.000000 -0.021735
v 0.026541 0.000000 -0.021735
v 0.026541 0.000000 -0.019337
v 0.000141 0.000000 -0.019337
vn -0.0000 1.0000 -0.0000
vt 1.000000 0.000000
vt 0.333333 0.000000
vt 0.000000 0.000000
vt 0.666667 0.000000
s 0
usemtl SVGMat
f 16/13/4 14/14/4 13/15/4
f 16/13/4 15/16/4 14/14/4
o Curve.002
v 0.000141 0.000000 -0.016936
v 0.026541 0.000000 -0.016936
v 0.026541 0.000000 -0.014537
v 0.000141 0.000000 -0.014537
vn -0.0000 1.0000 -0.0000
vt 1.000000 0.000000
vt 0.333333 0.000000
vt 0.000000 0.000000
vt 0.666667 0.000000
s 0
usemtl SVGMat
f 20/17/5 18/18/5 17/19/5
f 20/17/5 19/20/5 18/18/5
o Curve.002
v 0.000141 0.000000 -0.016936
v 0.026541 0.000000 -0.016936
v 0.026541 0.000000 -0.014537
v 0.000141 0.000000 -0.014537
vn -0.0000 1.0000 -0.0000
vt 1.000000 0.000000
vt 0.333333 0.000000
vt 0.000000 0.000000
vt 0.666667 0.000000
s 0
usemtl SVGMat
f 24/21/6 22/22/6 21/23/6
f 24/21/6 23/24/6 22/22/6
o Curve.003
v 0.000141 0.000000 -0.012139
v 0.026541 0.000000 -0.012139
v 0.026541 0.000000 -0.009740
v 0.000141 0.000000 -0.009740
vn -0.0000 1.0000 -0.0000
vt 1.000000 0.000000
vt 0.333333 0.000000
vt 0.000000 0.000000
vt 0.666667 0.000000
s 0
usemtl SVGMat
f 28/25/7 26/26/7 25/27/7
f 28/25/7 27/28/7 26/26/7
o Curve.003
v 0.000141 0.000000 -0.012139
v 0.026541 0.000000 -0.012139
v 0.026541 0.000000 -0.009740
v 0.000141 0.000000 -0.009740
vn -0.0000 1.0000 -0.0000
vt 1.000000 0.000000
vt 0.333333 0.000000
vt 0.000000 0.000000
vt 0.666667 0.000000
s 0
usemtl SVGMat
f 32/29/8 30/30/8 29/31/8
f 32/29/8 31/32/8 30/30/8
o Curve.004
v 0.000141 0.000000 -0.007339
v 0.026541 0.000000 -0.007339
v 0.026541 0.000000 -0.004941
v 0.000141 0.000000 -0.004941
vn -0.0000 1.0000 -0.0000
vt 1.000000 0.000000
vt 0.333333 0.000000
vt 0.000000 0.000000
vt 0.666667 0.000000
s 0
usemtl SVGMat
f 36/33/9 34/34/9 33/35/9
f 36/33/9 35/36/9 34/34/9
o Curve.004
v 0.000141 0.000000 -0.007339
v 0.026541 0.000000 -0.007339
v 0.026541 0.000000 -0.004941
v 0.000141 0.000000 -0.004941
vn -0.0000 1.0000 -0.0000
vt 1.000000 0.000000
vt 0.333333 0.000000
vt 0.000000 0.000000
vt 0.666667 0.000000
s 0
usemtl SVGMat
f 40/37/10 38/38/10 37/39/10
f 40/37/10 39/40/10 38/38/10
o Curve.005
v 0.000141 0.000000 -0.002540
v 0.026541 0.000000 -0.002540
v 0.026541 0.000000 -0.000141
v 0.000141 0.000000 -0.000141
vn -0.0000 1.0000 -0.0000
vt 1.000000 0.000000
vt 0.333333 0.000000
vt 0.000000 0.000000
vt 0.666667 0.000000
s 0
usemtl SVGMat
f 44/41/11 42/42/11 41/43/11
f 44/41/11 43/44/11 42/42/11
o Curve.005
v 0.000141 0.000000 -0.002540
v 0.026541 0.000000 -0.002540
v 0.026541 0.000000 -0.000141
v 0.000141 0.000000 -0.000141
vn -0.0000 1.0000 -0.0000
vt 1.000000 0.000000
vt 0.333333 0.000000
vt 0.000000 0.000000
vt 0.666667 0.000000
s 0
usemtl SVGMat
f 48/45/12 46/46/12 45/47/12
f 48/45/12 47/48/12 46/46/12
