# Blender 4.0.2
# www.blender.org
mtllib pfeilvelogerade_ch.mtl
o Curve
v 0.008800 0.000000 -0.080125
v 0.000000 0.000000 -0.054529
v 0.017600 0.000000 -0.054529
v 0.008800 0.000000 -0.080125
vn -0.0000 1.0000 -0.0000
vt 0.333333 0.000000
vt 0.666667 0.000000
vt 1.000000 0.000000
s 0
usemtl SVGMat.001
f 2/1/1 3/2/1 4/3/1
o Curve
v 0.008800 0.000000 -0.080125
v 0.000000 0.000000 -0.054529
v 0.017600 0.000000 -0.054529
v 0.008800 0.000000 -0.080125
vn -0.0000 1.0000 -0.0000
vt 0.333333 0.000000
vt 0.666667 0.000000
vt 1.000000 0.000000
s 0
usemtl SVGMat.001
f 6/4/2 7/5/2 8/6/2
o Curve.001
v 0.006401 0.000000 -0.054529
v 0.011202 0.000000 -0.054529
v 0.011202 0.000000 -0.000138
v 0.006401 0.000000 -0.000138
vn -0.0000 1.0000 -0.0000
vt 1.000000 0.000000
vt 0.333333 0.000000
vt 0.000000 0.000000
vt 0.666667 0.000000
s 0
usemtl SVGMat.001
f 12/7/3 10/8/3 9/9/3
f 12/7/3 11/10/3 10/8/3
o Curve.001
v 0.006401 0.000000 -0.054529
v 0.011202 0.000000 -0.054529
v 0.011202 0.000000 -0.000138
v 0.006401 0.000000 -0.000138
vn -0.0000 1.0000 -0.0000
vt 1.000000 0.000000
vt 0.333333 0.000000
vt 0.000000 0.000000
vt 0.666667 0.000000
s 0
usemtl SVGMat.001
f 16/11/4 14/12/4 13/13/4
f 16/11/4 15/14/4 14/12/4
